<?xml version="1.0" encoding="UTF-8" standalone="no"?>
<!-- Created with Inkscape (http://www.inkscape.org/) -->

<svg
   version="1.1"
   id="svg2"
   xml:space="preserve"
   width="880"
   height="880"
   viewBox="0 0 880 880"
   sodipodi:docname="scales.svg"
   inkscape:version="1.1 (c68e22c387, 2021-05-23)"
   xmlns:inkscape="http://www.inkscape.org/namespaces/inkscape"
   xmlns:sodipodi="http://sodipodi.sourceforge.net/DTD/sodipodi-0.dtd"
   xmlns="http://www.w3.org/2000/svg"
   xmlns:svg="http://www.w3.org/2000/svg"><defs
     id="defs6"><clipPath
       clipPathUnits="userSpaceOnUse"
       id="clipPath16"><path
         d="M 0,660 H 660 V 0 H 0 Z"
         id="path14" /></clipPath></defs><sodipodi:namedview
     id="namedview4"
     pagecolor="#ffffff"
     bordercolor="#666666"
     borderopacity="1.0"
     inkscape:pageshadow="2"
     inkscape:pageopacity="0.0"
     inkscape:pagecheckerboard="0"
     showgrid="false"
     inkscape:zoom="0.99204545"
     inkscape:cx="425.88774"
     inkscape:cy="577.09049"
     inkscape:window-width="2560"
     inkscape:window-height="1377"
     inkscape:window-x="-8"
     inkscape:window-y="-8"
     inkscape:window-maximized="1"
     inkscape:current-layer="g8" /><g
     id="g8"
     inkscape:groupmode="layer"
     inkscape:label="clip-art-scale-of-justice-publicdomainvectors.org"
     transform="matrix(1.3333333,0,0,-1.3333333,0,880)"><path
       d="m 328.613,615.43257 c 171.277,0 310.122,-138.846 310.122,-310.122 0,-82.843 -32.483,-158.095 -85.406,-213.721997 H 103.898 C 50.976,147.21557 18.491,222.46757 18.491,305.31057 c 0,171.276 138.847,310.122 310.122,310.122"
       style="fill:#c1dff5;fill-opacity:1;fill-rule:evenodd;stroke:none"
       id="path68" /><path
       d="m 448.644,352.86857 20.852,72.272 20.852,-72.272 z m 45.183,0 c -6.978,24.204 -13.964,48.405 -20.948,72.608 l 73.545,-72.608 z m -27.715,72.609 -20.947,-72.609 h -52.597 z m 1.901,6.582 -83.616,-82.552 h 59.798 50.601 59.798 l -83.615,82.552 -1.483,5.141 z"
       style="fill:#3b1b14;fill-opacity:1;fill-rule:evenodd;stroke:none"
       id="path70" /><path
       d="m 376.706,349.04657 c 0,-51.246 41.545,-92.789 92.79,-92.789 51.245,0 92.789,41.543 92.789,92.789 z"
       style="fill:#d96733;fill-opacity:1;fill-rule:evenodd;stroke:none"
       id="path72" /><path
       d="m 469.496,415.52757 c 8.615,0 15.643,7.027 15.643,15.643 0,8.616 -7.028,15.643 -15.643,15.643 -8.616,0 -15.643,-7.027 -15.643,-15.643 0,-8.616 7.027,-15.643 15.643,-15.643"
       style="fill:#d96733;fill-opacity:1;fill-rule:evenodd;stroke:none"
       id="path74" /><path
       d="m 559.807,358.29057 h -180.62 c -3.907,0 -7.103,-3.196 -7.103,-7.101 0,-3.907 3.196,-7.102 7.103,-7.102 h 180.62 c 3.904,0 7.1,3.195 7.1,7.102 0,3.905 -3.196,7.101 -7.1,7.101"
       style="fill:#f79965;fill-opacity:1;fill-rule:evenodd;stroke:none"
       id="path76" /><path
       d="m 459.857,439.70357 h -96.774 c -9.573,0 -9.573,-17.066 0,-17.066 h 96.774 c 9.573,0 9.574,17.066 0,17.066"
       style="fill:#892f1b;fill-opacity:1;fill-rule:evenodd;stroke:none"
       id="path78" /><path
       d="m 208.65,352.86857 -20.851,72.272 -20.852,-72.272 z m -45.183,0 c 6.98,24.204 13.965,48.405 20.949,72.608 l -73.544,-72.608 z m 27.714,72.609 20.949,-72.609 h 52.597 z m -1.899,6.582 83.615,-82.552 h -59.798 -50.601 -59.796 l 83.613,82.552 1.484,5.141 z"
       style="fill:#3b1b14;fill-opacity:1;fill-rule:evenodd;stroke:none"
       id="path80" /><path
       d="m 325.868,166.77257 h 22.753 v 324.125 h -22.753 z"
       style="fill:#892f1b;fill-opacity:1;fill-rule:evenodd;stroke:none"
       id="path82" /><path
       d="m 337.245,396.33057 c 19.19,0 34.839,15.651 34.839,34.84 0,19.19 -15.649,34.841 -34.839,34.841 -19.189,0 -34.841,-15.651 -34.841,-34.841 0,-19.189 15.652,-34.84 34.841,-34.84"
       style="fill:#d96733;fill-opacity:1;fill-rule:evenodd;stroke:none"
       id="path84" /><path
       d="m 280.588,349.04657 c 0,-51.246 -41.543,-92.789 -92.789,-92.789 -51.246,0 -92.789,41.543 -92.789,92.789 z"
       style="fill:#d96733;fill-opacity:1;fill-rule:evenodd;stroke:none"
       id="path86" /><path
       d="m 188.913,439.70357 h 127.114 c 9.576,0 9.574,-17.066 0,-17.066 H 188.913 c -9.574,0 -9.575,17.066 0,17.066"
       style="fill:#892f1b;fill-opacity:1;fill-rule:evenodd;stroke:none"
       id="path88" /><path
       d="m 187.8,415.52757 c 8.615,0 15.642,7.027 15.642,15.643 0,8.616 -7.027,15.643 -15.642,15.643 -8.616,0 -15.643,-7.027 -15.643,-15.643 0,-8.616 7.027,-15.643 15.643,-15.643"
       style="fill:#d96733;fill-opacity:1;fill-rule:evenodd;stroke:none"
       id="path90" /><path
       d="m 97.489,358.29057 h 180.62 c 3.905,0 7.101,-3.196 7.101,-7.101 0,-3.907 -3.196,-7.102 -7.101,-7.102 H 97.489 c -3.905,0 -7.101,3.195 -7.101,7.102 0,3.905 3.196,7.101 7.101,7.101"
       style="fill:#f79965;fill-opacity:1;fill-rule:evenodd;stroke:none"
       id="path92" /><path
       d="m 337.245,483.55757 c 9.133,0 16.582,7.449 16.582,16.583 0,9.133 -7.449,16.583 -16.582,16.583 -9.134,0 -16.584,-7.45 -16.584,-16.583 0,-9.134 7.45,-16.583 16.584,-16.583"
       style="fill:#d96733;fill-opacity:1;fill-rule:evenodd;stroke:none"
       id="path94" /><path
       d="m 230.597,132.91157 h 213.297 v 16.93 c 0,9.311 -7.619,16.929 -16.931,16.929 H 247.526 c -9.311,0 -16.929,-7.618 -16.929,-16.929 z"
       style="fill:#2d1813;fill-opacity:1;fill-rule:evenodd;stroke:none"
       id="path96" /><path
       d="m 177.263,92.786573 h 319.963 v 25.395997 c 0,13.966 -11.426,25.396 -25.396,25.396 H 202.66 c -13.969,0 -25.397,-11.43 -25.397,-25.396 z"
       style="fill:#3b1b14;fill-opacity:1;fill-rule:evenodd;stroke:none"
       id="path98" /></g></svg>
