<?xml version="1.0" encoding="UTF-8" standalone="no"?>
<!-- Created with Inkscape (http://www.inkscape.org/) -->

<svg
   id="svg8087"
   sodipodi:docname="Icon-set-graph.svg"
   viewBox="0 0 1463.5381 1471.561"
   version="1.1"
   inkscape:version="1.1 (c68e22c387, 2021-05-23)"
   width="1463.5381"
   height="1471.561"
   xmlns:inkscape="http://www.inkscape.org/namespaces/inkscape"
   xmlns:sodipodi="http://sodipodi.sourceforge.net/DTD/sodipodi-0.dtd"
   xmlns="http://www.w3.org/2000/svg"
   xmlns:svg="http://www.w3.org/2000/svg"
   xmlns:rdf="http://www.w3.org/1999/02/22-rdf-syntax-ns#"
   xmlns:cc="http://creativecommons.org/ns#"
   xmlns:dc="http://purl.org/dc/elements/1.1/">
  <defs
     id="defs120" />
  <sodipodi:namedview
     id="base"
     bordercolor="#666666"
     inkscape:pageshadow="2"
     inkscape:window-y="-8"
     fit-margin-left="0"
     pagecolor="#ffffff"
     fit-margin-top="0"
     inkscape:window-maximized="1"
     inkscape:zoom="0.35"
     inkscape:window-x="2552"
     inkscape:window-height="1017"
     showgrid="false"
     borderopacity="1.0"
     inkscape:current-layer="layer1"
     inkscape:cx="-592.85714"
     inkscape:cy="498.57143"
     fit-margin-right="0"
     fit-margin-bottom="0"
     inkscape:window-width="1920"
     inkscape:pageopacity="0.0"
     inkscape:document-units="px"
     inkscape:pagecheckerboard="0" />
  <g
     id="layer1"
     inkscape:label="Livello 1"
     inkscape:groupmode="layer"
     transform="translate(301.77761,649.12747)">
    <g
       id="g9391"
       transform="matrix(11.433694,0,0,11.433694,-301.78167,-645.16114)">
      <g
         id="layer1-9"
         transform="translate(0,-924.36)">
        <path
           id="path3160-2"
           d="m 128.29,64.865 a 63.766,63.892 0 1 1 -127.53,0 63.766,63.892 0 1 1 127.53,0 z"
           style="fill:none;stroke:#000000;stroke-width:1.9947;stroke-linecap:round;stroke-linejoin:round"
           inkscape:connector-curvature="0"
           transform="matrix(0.98823,0,0,0.98628,0.23592,924.39)" />
      </g>
      <path
         id="path4119"
         d="m 24,100 c 0,2.7614 -2.2386,5 -5,5 -2.7614,0 -5,-2.2386 -5,-5 0,-2.7614 2.2386,-5 5,-5 2.7614,0 5,2.2386 5,5 z"
         style="color:#000000;fill:#4d4d4d"
         inkscape:connector-curvature="0" />
      <path
         id="path4122"
         d="M 11.195,55.805 9,58 11.805,60.805 9,63.61 11.195,65.805 14,63 16.805,65.805 19,63.61 16.195,60.805 19,58 16.805,55.805 14,58.61 Z"
         style="color:#000000;text-indent:0;text-transform:none;fill:#4d4d4d"
         inkscape:connector-curvature="0" />
      <path
         id="path4169"
         style="color:#000000;fill:#4d4d4d"
         inkscape:connector-curvature="0"
         d="m 49,90 c 0,2.7614 -2.2386,5 -5,5 -2.7614,0 -5,-2.2386 -5,-5 0,-2.7614 2.2386,-5 5,-5 2.7614,0 5,2.2386 5,5 z" />
      <path
         id="path4171"
         style="color:#000000;text-indent:0;text-transform:none;fill:#4d4d4d"
         inkscape:connector-curvature="0"
         d="M 28.39,43 26.195,45.195 29,48 26.195,50.805 28.39,53 31.195,50.195 34,53 36.195,50.805 33.39,48 36.195,45.195 34,43 31.195,45.805 Z" />
      <path
         id="path4173"
         d="m 74,95 c 0,2.7614 -2.2386,5 -5,5 -2.7614,0 -5,-2.2386 -5,-5 0,-2.7614 2.2386,-5 5,-5 2.7614,0 5,2.2386 5,5 z"
         style="color:#000000;fill:#4d4d4d"
         inkscape:connector-curvature="0" />
      <path
         id="path4175"
         d="m 51.195,30.195 -2.1951,2.1951 2.8049,2.8049 -2.805,2.805 2.195,2.195 2.805,-2.805 2.805,2.805 2.195,-2.195 -2.805,-2.805 2.805,-2.805 -2.195,-2.195 -2.805,2.805 -2.805,-2.805 z"
         style="color:#000000;text-indent:0;text-transform:none;fill:#4d4d4d"
         inkscape:connector-curvature="0" />
      <path
         id="path4177"
         style="color:#000000;fill:#4d4d4d"
         inkscape:connector-curvature="0"
         d="m 89,75 c 0,2.7614 -2.2386,5 -5,5 -2.7614,0 -5,-2.2386 -5,-5 0,-2.7614 2.2386,-5 5,-5 2.7614,0 5,2.2386 5,5 z" />
      <path
         id="path4179"
         style="color:#000000;text-indent:0;text-transform:none;fill:#4d4d4d"
         inkscape:connector-curvature="0"
         d="m 71.195,35.195 -2.1951,2.1951 2.8049,2.8049 -2.805,2.805 2.195,2.195 2.805,-2.805 2.805,2.805 2.195,-2.195 -2.805,-2.805 2.805,-2.805 -2.195,-2.195 -2.805,2.805 -2.805,-2.805 z" />
      <path
         id="path4181"
         d="m 86.195,30.195 -2.1951,2.1951 2.8049,2.8049 -2.805,2.805 2.195,2.195 2.805,-2.805 2.805,2.805 2.195,-2.195 -2.805,-2.805 2.805,-2.805 -2.195,-2.195 -2.805,2.805 -2.805,-2.805 z"
         style="color:#000000;text-indent:0;text-transform:none;fill:#4d4d4d"
         inkscape:connector-curvature="0" />
      <path
         id="path4183"
         d="m 104,90 c 0,2.7614 -2.2386,5 -5,5 -2.7614,0 -5,-2.2386 -5,-5 0,-2.7614 2.2386,-5 5,-5 2.7614,0 5,2.2386 5,5 z"
         style="color:#000000;fill:#4d4d4d"
         inkscape:connector-curvature="0" />
      <path
         id="path4185"
         style="color:#000000;fill:#4d4d4d"
         inkscape:connector-curvature="0"
         d="m 124,75 c 0,2.7614 -2.2386,5 -5,5 -2.7614,0 -5,-2.2386 -5,-5 0,-2.7614 2.2386,-5 5,-5 2.7614,0 5,2.2386 5,5 z" />
      <path
         id="path4187"
         style="color:#000000;text-indent:0;text-transform:none;fill:#4d4d4d"
         inkscape:connector-curvature="0"
         d="m 106.2,45.195 -2.2,2.195 2.8,2.805 -2.8,2.805 2.2,2.195 2.8,-2.805 2.8,2.805 L 114,53 111.2,50.195 114,47.39 111.8,45.195 109,48 Z" />
      <path
         id="path4189"
         d="M 14,58 29,48 54,33 74,38 89,33 109,48"
         style="fill:none;stroke:#4d4d4d;stroke-dasharray:3, 1"
         inkscape:connector-curvature="0" />
      <path
         id="path4191"
         d="M 19,100 119,75"
         style="fill:none;stroke:#4d4d4d;stroke-dasharray:2, 1"
         inkscape:connector-curvature="0" />
    </g>
  </g>
  <metadata
     id="metadata117">
    <rdf:RDF>
      <cc:Work>
        <dc:format>image/svg+xml</dc:format>
        <dc:type
           rdf:resource="http://purl.org/dc/dcmitype/StillImage" />
        <cc:license
           rdf:resource="http://creativecommons.org/publicdomain/zero/1.0/" />
        <dc:publisher>
          <cc:Agent
             rdf:about="http://openclipart.org/">
            <dc:title>Openclipart</dc:title>
          </cc:Agent>
        </dc:publisher>
        <dc:title>Icon Set Graph</dc:title>
        <dc:date>2012-09-06T20:29:21</dc:date>
        <dc:description>Check others icons on my &quot;Minimal Icon Set&quot; collection.\nSet of simple icons useful for gui design and applications use interface. Icons representing various graph and plotting </dc:description>
        <dc:source>https://openclipart.org/detail/172197/icon-set-graph-by-mi_brami-172197</dc:source>
        <dc:creator>
          <cc:Agent>
            <dc:title>mi_brami</dc:title>
          </cc:Agent>
        </dc:creator>
        <dc:subject>
          <rdf:Bag>
            <rdf:li>Icon</rdf:li>
            <rdf:li>area</rdf:li>
            <rdf:li>b&amp;w</rdf:li>
            <rdf:li>barcode</rdf:li>
            <rdf:li>bars</rdf:li>
            <rdf:li>black</rdf:li>
            <rdf:li>data</rdf:li>
            <rdf:li>graph</rdf:li>
            <rdf:li>gray</rdf:li>
            <rdf:li>icon</rdf:li>
            <rdf:li>pie</rdf:li>
            <rdf:li>plot</rdf:li>
            <rdf:li>round</rdf:li>
            <rdf:li>scatter</rdf:li>
            <rdf:li>table</rdf:li>
            <rdf:li>transparent</rdf:li>
            <rdf:li>white</rdf:li>
            <rdf:li>xy</rdf:li>
          </rdf:Bag>
        </dc:subject>
      </cc:Work>
      <cc:License
         rdf:about="http://creativecommons.org/publicdomain/zero/1.0/">
        <cc:permits
           rdf:resource="http://creativecommons.org/ns#Reproduction" />
        <cc:permits
           rdf:resource="http://creativecommons.org/ns#Distribution" />
        <cc:permits
           rdf:resource="http://creativecommons.org/ns#DerivativeWorks" />
      </cc:License>
    </rdf:RDF>
  </metadata>
</svg>
